<svg class="MuiSvgIcon-root MuiSvgIcon-fontSizeMedium css-1yc00gz" focusable="false" aria-hidden="true" viewBox="0 0 800 800" width="800" height="800" fill="none" xmlns="http://www.w3.org/2000/svg"><path d="M402.667 518C367.33 518 332.786 507.523 303.405 487.89C274.023 468.257 251.123 440.353 237.6 407.707C224.077 375.06 220.539 339.137 227.433 304.478C234.327 269.82 251.343 237.984 276.33 212.997C301.317 188.01 333.153 170.994 367.81 164.1C402.47 157.206 438.393 160.744 471.04 174.267C503.687 187.79 531.59 210.69 551.223 240.072C570.853 269.453 581.333 303.997 581.333 339.333C581.333 362.797 576.713 386.03 567.733 407.707C558.753 429.383 545.593 449.08 529.003 465.67C512.413 482.26 492.717 495.42 471.04 504.4C449.363 513.38 426.13 518 402.667 518ZM402.667 210.667C377.22 210.667 352.343 218.213 331.183 232.351C310.024 246.489 293.533 266.584 283.794 290.095C274.056 313.606 271.508 339.477 276.472 364.437C281.437 389.393 293.691 412.32 311.686 430.313C329.68 448.31 352.607 460.563 377.567 465.527C402.523 470.493 428.393 467.943 451.907 458.207C475.417 448.467 495.51 431.977 509.65 410.817C523.787 389.657 531.333 364.78 531.333 339.333C531.333 305.209 517.777 272.482 493.647 248.353C469.517 224.223 436.79 210.667 402.667 210.667Z" fill="currentColor"></path><path d="M400 643.667C376.53 643.72 353.28 639.123 331.597 630.14C309.913 621.157 290.224 607.97 273.667 591.333C269.251 586.593 266.847 580.327 266.961 573.85C267.075 567.373 269.699 561.193 274.28 556.613C278.86 552.033 285.04 549.407 291.516 549.293C297.993 549.18 304.261 551.583 309 556C333.693 579.057 366.216 591.88 400 591.88C433.783 591.88 466.31 579.057 491 556C495.74 551.583 502.006 549.18 508.483 549.293C514.96 549.407 521.14 552.033 525.72 556.613C530.303 561.193 532.926 567.373 533.04 573.85C533.153 580.327 530.75 586.593 526.333 591.333C509.776 607.97 490.086 621.157 468.403 630.14C446.72 639.123 423.47 643.72 400 643.667Z" fill="currentColor"></path><path d="M402.667 400C436.173 400 463.333 372.837 463.333 339.333C463.333 305.828 436.173 278.666 402.667 278.666C369.163 278.666 342 305.828 342 339.333C342 372.837 369.163 400 402.667 400Z" fill="currentColor"></path><path d="M666.666 755.333C660.036 755.333 653.676 752.7 648.99 748.01C644.3 743.323 641.666 736.963 641.666 730.333V333.333C637.156 272.944 609.983 216.492 565.596 175.297C521.21 134.102 462.89 111.209 402.333 111.209C341.776 111.209 283.457 134.102 239.07 175.297C194.684 216.492 167.511 272.944 163 333.333V730.333C163 736.963 160.366 743.323 155.678 748.01C150.989 752.7 144.631 755.333 138 755.333C131.37 755.333 125.011 752.7 120.322 748.01C115.634 743.323 113 736.963 113 730.333V333.333C115.55 258.166 147.202 186.929 201.278 134.656C255.354 82.3832 327.623 53.1636 402.833 53.1636C478.043 53.1636 550.313 82.3832 604.39 134.656C658.466 186.929 690.116 258.166 692.666 333.333V730.333C692.623 733.69 691.913 737.003 690.58 740.08C689.246 743.16 687.313 745.943 684.893 748.27C682.476 750.597 679.62 752.417 676.49 753.63C673.36 754.843 670.023 755.423 666.666 755.333Z" fill="currentColor"></path><path d="M666.666 755.333H138C131.37 755.333 125.011 752.7 120.322 748.01C115.634 743.323 113 736.963 113 730.333C113 723.703 115.634 717.343 120.322 712.657C125.011 707.967 131.37 705.333 138 705.333H666.666C673.296 705.333 679.656 707.967 684.343 712.657C689.033 717.343 691.666 723.703 691.666 730.333C691.666 736.963 689.033 743.323 684.343 748.01C679.656 752.7 673.296 755.333 666.666 755.333Z" fill="currentColor"></path></svg>